<svg xmlns="http://www.w3.org/2000/svg" viewBox="0 0 300 260" font-family="Arial, sans-serif">
  <title>Con lắc đơn: dây dài l, góc lệch α</title>
  <rect x="60" y="26" width="120" height="12" fill="#90A4AE"></rect>
  <line x1="66" y1="38" x2="72" y2="48" stroke="#546E7A" stroke-width="1.1"></line><line x1="81" y1="38" x2="87" y2="48" stroke="#546E7A" stroke-width="1.1"></line><line x1="96" y1="38" x2="102" y2="48" stroke="#546E7A" stroke-width="1.1"></line><line x1="111" y1="38" x2="117" y2="48" stroke="#546E7A" stroke-width="1.1"></line><line x1="126" y1="38" x2="132" y2="48" stroke="#546E7A" stroke-width="1.1"></line><line x1="141" y1="38" x2="147" y2="48" stroke="#546E7A" stroke-width="1.1"></line><line x1="156" y1="38" x2="162" y2="48" stroke="#546E7A" stroke-width="1.1"></line><line x1="171" y1="38" x2="177" y2="48" stroke="#546E7A" stroke-width="1.1"></line>
  <line x1="120" y1="38" x2="120" y2="214" stroke="#90A4AE" stroke-width="1" stroke-dasharray="4 4"></line>
  <line x1="120" y1="38" x2="64" y2="186" stroke="#0D47A1" stroke-width="2" stroke-dasharray="5 4"></line>
  <line x1="120" y1="38" x2="176" y2="186" stroke="#0D47A1" stroke-width="2.5"></line>
  <circle cx="176" cy="196" r="14" fill="#FFB74D" stroke="#E65100" stroke-width="2"></circle>
  <circle cx="64" cy="196" r="13" fill="none" stroke="#546E7A" stroke-width="1.5" stroke-dasharray="4 3"></circle>
  <path d="M120,98 A 62 62 0 0 1 148 120" fill="none" stroke="#C62828" stroke-width="1.6"></path>
  <text x="133" y="96" font-size="15" font-weight="700" fill="#C62828">α</text>
  <text x="156" y="120" font-size="15" font-weight="700" fill="#0D47A1">l</text>
  <circle cx="120" cy="38" r="3.5" fill="#0D47A1"></circle>
</svg>