<svg xmlns="http://www.w3.org/2000/svg" viewBox="0 0 340 230" font-family="Arial, sans-serif">
  <title>Đồ thị dao động điều hòa x(t)</title>
  <line x1="46" y1="210" x2="46" y2="18" stroke="#0D47A1" stroke-width="2"></line><path d="M49.3,25.3 L46,18 L42.7,25.3" fill="none" stroke="#0D47A1" stroke-width="2" stroke-linecap="round" stroke-linejoin="round"></path>
  <line x1="28" y1="120" x2="326" y2="120" stroke="#0D47A1" stroke-width="2"></line><path d="M318.7,123.3 L326,120 L318.7,116.7" fill="none" stroke="#0D47A1" stroke-width="2" stroke-linecap="round" stroke-linejoin="round"></path>
  <text x="34" y="16" font-size="14" font-weight="700" fill="#0D47A1">x</text>
  <text x="322" y="138" font-size="14" font-weight="700" fill="#0D47A1">t</text>
  <text x="32" y="135" font-size="12" fill="#546E7A">O</text>
  <polyline points="46,120.0 49,112.2 52,104.6 55,97.2 58,90.1 61,83.6 64,77.6 67,72.2 70,67.7 73,63.9 76,61.0 79,59.1 82,58.1 85,58.1 88,59.1 91,61.0 94,63.9 97,67.7 100,72.2 103,77.6 106,83.6 109,90.1 112,97.2 115,104.6 118,112.2 121,120.0 124,127.8 127,135.4 130,142.8 133,149.9 136,156.4 139,162.4 142,167.8 145,172.3 148,176.1 151,179.0 154,180.9 157,181.9 160,181.9 163,180.9 166,179.0 169,176.1 172,172.3 175,167.8 178,162.4 181,156.4 184,149.9 187,142.8 190,135.4 193,127.8 196,120.0 199,112.2 202,104.6 205,97.2 208,90.1 211,83.6 214,77.6 217,72.2 220,67.7 223,63.9 226,61.0 229,59.1 232,58.1 235,58.1 238,59.1 241,61.0 244,63.9 247,67.7 250,72.2 253,77.6 256,83.6 259,90.1 262,97.2 265,104.6 268,112.2 271,120.0 274,127.8 277,135.4 280,142.8 283,149.9 286,156.4 289,162.4 292,167.8 295,172.3 298,176.1 301,179.0 304,180.9 307,181.9 310,181.9" fill="none" stroke="#1565C0" stroke-width="2.5"></polyline>
  <line x1="46" y1="58" x2="121" y2="58" stroke="#C62828" stroke-width="1.3" stroke-dasharray="4 3"></line>
  <line x1="121" y1="58" x2="121" y2="120" stroke="#C62828" stroke-width="1.3" stroke-dasharray="4 3"></line>
  <text x="52" y="52" font-size="13" font-weight="700" fill="#C62828">A</text>
  <line x1="121" y1="196" x2="271" y2="196" stroke="#2E7D32" stroke-width="1.8"></line><path d="M263.7,199.3 L271,196 L263.7,192.7" fill="none" stroke="#2E7D32" stroke-width="1.8" stroke-linecap="round" stroke-linejoin="round"></path><line x1="271" y1="196" x2="121" y2="196" stroke="#2E7D32" stroke-width="1.8"></line><path d="M128.3,192.7 L121,196 L128.3,199.3" fill="none" stroke="#2E7D32" stroke-width="1.8" stroke-linecap="round" stroke-linejoin="round"></path>
  <line x1="121" y1="120" x2="121" y2="200" stroke="#2E7D32" stroke-width="1" stroke-dasharray="3 3"></line>
  <line x1="271" y1="120" x2="271" y2="200" stroke="#2E7D32" stroke-width="1" stroke-dasharray="3 3"></line>
  <text x="190" y="214" font-size="13" font-weight="700" fill="#2E7D32">T</text>
</svg>