<svg xmlns="http://www.w3.org/2000/svg" viewBox="0 0 340 220" font-family="Arial, sans-serif">
  <title>Giao thoa ánh sáng — khe Young</title>
  <path d="M 150 66 A 20 20 0 0 1 150 106" fill="none" stroke="#90CAF9" stroke-width="1.2"></path><path d="M 150 46 A 40 40 0 0 1 150 126" fill="none" stroke="#90CAF9" stroke-width="1.2"></path><path d="M 150 26 A 60 60 0 0 1 150 146" fill="none" stroke="#90CAF9" stroke-width="1.2"></path><path d="M 150 6 A 80 80 0 0 1 150 166" fill="none" stroke="#90CAF9" stroke-width="1.2"></path><path d="M 150 -14 A 100 100 0 0 1 150 186" fill="none" stroke="#90CAF9" stroke-width="1.2"></path><path d="M 150 114 A 20 20 0 0 1 150 154" fill="none" stroke="#90CAF9" stroke-width="1.2"></path><path d="M 150 94 A 40 40 0 0 1 150 174" fill="none" stroke="#90CAF9" stroke-width="1.2"></path><path d="M 150 74 A 60 60 0 0 1 150 194" fill="none" stroke="#90CAF9" stroke-width="1.2"></path><path d="M 150 54 A 80 80 0 0 1 150 214" fill="none" stroke="#90CAF9" stroke-width="1.2"></path><path d="M 150 34 A 100 100 0 0 1 150 234" fill="none" stroke="#90CAF9" stroke-width="1.2"></path>
  <line x1="150" y1="20" x2="150" y2="80" stroke="#546E7A" stroke-width="4"></line>
  <line x1="150" y1="96" x2="150" y2="124" stroke="#546E7A" stroke-width="4"></line>
  <line x1="150" y1="140" x2="150" y2="200" stroke="#546E7A" stroke-width="4"></line>
  <line x1="40" y1="110" x2="96" y2="110" stroke="#E65100" stroke-width="2.2"></line><path d="M88.7,113.3 L96,110 L88.7,106.7" fill="none" stroke="#E65100" stroke-width="2.2" stroke-linecap="round" stroke-linejoin="round"></path><text x="44" y="100" font-size="11" font-weight="700" fill="#E65100">nguồn</text>
  <rect x="298" y="20" width="26" height="180" fill="#ECEFF1" stroke="#546E7A" stroke-width="1.5"></rect>
  <rect x="300" y="30" width="22" height="14" fill="#FFF176" opacity="0.95"></rect><rect x="300" y="48" width="22" height="14" fill="#37474F" opacity="0.55"></rect><rect x="300" y="66" width="22" height="14" fill="#FFF176" opacity="0.95"></rect><rect x="300" y="84" width="22" height="14" fill="#37474F" opacity="0.55"></rect><rect x="300" y="102" width="22" height="14" fill="#FFF176" opacity="0.95"></rect><rect x="300" y="120" width="22" height="14" fill="#37474F" opacity="0.55"></rect><rect x="300" y="138" width="22" height="14" fill="#FFF176" opacity="0.95"></rect><rect x="300" y="156" width="22" height="14" fill="#37474F" opacity="0.55"></rect><rect x="300" y="174" width="22" height="14" fill="#FFF176" opacity="0.95"></rect>
  <text x="311" y="214" text-anchor="middle" font-size="10" fill="#546E7A">màn</text>
  <text x="150" y="14" text-anchor="middle" font-size="10" fill="#546E7A">2 khe</text>
</svg>