<svg xmlns="http://www.w3.org/2000/svg" viewBox="0 0 340 220" font-family="Arial, sans-serif">
  <title>Sóng ngang và sóng dọc</title>
  <polyline points="40,60 43,51.580964487968025 46,44.44365081389596 49,39.67465028475169 52,38 55,39.67465028475169 58,44.44365081389596 61,51.580964487968025 64,60 67,68.41903551203197 70,75.55634918610404 73,80.32534971524831 76,82 79,80.32534971524831 82,75.55634918610404 85,68.419035512032 88,60.00000000000001 91,51.58096448796802 94,44.44365081389596 97,39.67465028475169 100,38 103,39.67465028475169 106,44.443650813895935 109,51.58096448796801 112,59.99999999999999 115,68.41903551203198 118,75.55634918610406 121,80.32534971524831 124,82 127,80.32534971524831 130,75.55634918610407 133,68.419035512032 136,60.000000000000014 139,51.580964487968025 142,44.44365081389595 145,39.6746502847517 148,38 151,39.67465028475169 154,44.44365081389593 157,51.580964487968004 160,59.999999999999986 163,68.41903551203194 166,75.55634918610404 169,80.3253497152483 172,82 175,80.32534971524831 178,75.55634918610407 181,68.41903551203197 184,60.000000000000014 187,51.58096448796807 190,44.44365081389596 193,39.674650284751706 196,38 199,39.67465028475169 202,44.44365081389593 205,51.58096448796803 208,59.99999999999998 211,68.41903551203193 214,75.55634918610404 217,80.3253497152483 220,82 223,80.32534971524831 226,75.55634918610407 229,68.41903551203197 232,60.00000000000002 235,51.580964487968075 238,44.44365081389596 241,39.674650284751706 244,38 247,39.674650284751685 250,44.44365081389593 253,51.58096448796803 256,59.99999999999998 259,68.41903551203193 262,75.55634918610404 265,80.3253497152483 268,82 271,80.32534971524831 274,75.55634918610409 277,68.41903551203197 280,60.00000000000003 283,51.580964487968075 286,44.443650813896014 289,39.67465028475168 292,38 295,39.674650284751685 298,44.44365081389592" fill="none" stroke="#1565C0" stroke-width="2.5"></polyline>
  <line x1="170" y1="60" x2="170" y2="28" stroke="#C62828" stroke-width="1.8"></line><path d="M173.3,35.3 L170,28 L166.7,35.3" fill="none" stroke="#C62828" stroke-width="1.8" stroke-linecap="round" stroke-linejoin="round"></path><line x1="170" y1="60" x2="170" y2="92" stroke="#C62828" stroke-width="1.8"></line><path d="M166.7,84.7 L170,92 L173.3,84.7" fill="none" stroke="#C62828" stroke-width="1.8" stroke-linecap="round" stroke-linejoin="round"></path>
  <line x1="300" y1="108" x2="328" y2="108" stroke="#2E7D32" stroke-width="1.8"></line><path d="M320.7,111.3 L328,108 L320.7,104.7" fill="none" stroke="#2E7D32" stroke-width="1.8" stroke-linecap="round" stroke-linejoin="round"></path>
  <text x="40" y="22" font-size="12" font-weight="700" fill="#37474F">Sóng ngang (dao động ⊥ phương truyền)</text>
  <line x1="44" y1="148" x2="44" y2="188" stroke="#0D47A1" stroke-width="0.8"></line><line x1="54" y1="148" x2="54" y2="188" stroke="#0D47A1" stroke-width="1.0"></line><line x1="64" y1="148" x2="64" y2="188" stroke="#0D47A1" stroke-width="1.4"></line><line x1="74" y1="148" x2="74" y2="188" stroke="#0D47A1" stroke-width="2.0"></line><line x1="84" y1="148" x2="84" y2="188" stroke="#0D47A1" stroke-width="2.7"></line><line x1="94" y1="148" x2="94" y2="188" stroke="#0D47A1" stroke-width="3.2"></line><line x1="104" y1="148" x2="104" y2="188" stroke="#0D47A1" stroke-width="3.6"></line><line x1="114" y1="148" x2="114" y2="188" stroke="#0D47A1" stroke-width="3.6"></line><line x1="124" y1="148" x2="124" y2="188" stroke="#0D47A1" stroke-width="3.2"></line><line x1="134" y1="148" x2="134" y2="188" stroke="#0D47A1" stroke-width="2.7"></line><line x1="144" y1="148" x2="144" y2="188" stroke="#0D47A1" stroke-width="2.0"></line><line x1="154" y1="148" x2="154" y2="188" stroke="#0D47A1" stroke-width="1.4"></line><line x1="164" y1="148" x2="164" y2="188" stroke="#0D47A1" stroke-width="1.0"></line><line x1="174" y1="148" x2="174" y2="188" stroke="#0D47A1" stroke-width="0.8"></line><line x1="184" y1="148" x2="184" y2="188" stroke="#0D47A1" stroke-width="1.0"></line><line x1="194" y1="148" x2="194" y2="188" stroke="#0D47A1" stroke-width="1.4"></line><line x1="204" y1="148" x2="204" y2="188" stroke="#0D47A1" stroke-width="2.0"></line><line x1="214" y1="148" x2="214" y2="188" stroke="#0D47A1" stroke-width="2.7"></line><line x1="224" y1="148" x2="224" y2="188" stroke="#0D47A1" stroke-width="3.2"></line><line x1="234" y1="148" x2="234" y2="188" stroke="#0D47A1" stroke-width="3.6"></line><line x1="244" y1="148" x2="244" y2="188" stroke="#0D47A1" stroke-width="3.6"></line><line x1="254" y1="148" x2="254" y2="188" stroke="#0D47A1" stroke-width="3.2"></line><line x1="264" y1="148" x2="264" y2="188" stroke="#0D47A1" stroke-width="2.7"></line><line x1="274" y1="148" x2="274" y2="188" stroke="#0D47A1" stroke-width="2.0"></line><line x1="284" y1="148" x2="284" y2="188" stroke="#0D47A1" stroke-width="1.4"></line><line x1="294" y1="148" x2="294" y2="188" stroke="#0D47A1" stroke-width="1.0"></line>
  <line x1="300" y1="168" x2="328" y2="168" stroke="#2E7D32" stroke-width="1.8"></line><path d="M320.7,171.3 L328,168 L320.7,164.7" fill="none" stroke="#2E7D32" stroke-width="1.8" stroke-linecap="round" stroke-linejoin="round"></path>
  <text x="40" y="210" font-size="12" font-weight="700" fill="#37474F">Sóng dọc (dao động ∥ phương truyền)</text>
</svg>