<svg xmlns="http://www.w3.org/2000/svg" viewBox="0 0 320 200" font-family="Arial, sans-serif">
  <title>Đường sức từ của nam châm thẳng</title>
  <path d="M160,62 C 224,54 228,146 160,138" fill="none" stroke="#1565C0" stroke-width="1.6"></path><path d="M160,62 C 96,54 92,146 160,138" fill="none" stroke="#1565C0" stroke-width="1.6"></path><path d="M160,62 C 275.2,47.6 282.4,152.4 160,138" fill="none" stroke="#1565C0" stroke-width="1.6"></path><path d="M160,62 C 44.8,47.6 37.60000000000001,152.4 160,138" fill="none" stroke="#1565C0" stroke-width="1.6"></path><path d="M160,62 C 326.4,41.2 336.79999999999995,158.8 160,138" fill="none" stroke="#1565C0" stroke-width="1.6"></path><path d="M160,62 C -6.400000000000006,41.2 -16.799999999999983,158.8 160,138" fill="none" stroke="#1565C0" stroke-width="1.6"></path>
  <line x1="228" y1="96" x2="229" y2="104" stroke="#1565C0" stroke-width="1.6"></line><path d="M224.9,97.2 L229,104 L231.3,96.3" fill="none" stroke="#1565C0" stroke-width="1.6" stroke-linecap="round" stroke-linejoin="round"></path><line x1="92" y1="104" x2="91" y2="96" stroke="#1565C0" stroke-width="1.6"></line><path d="M95.1,102.8 L91,96 L88.7,103.7" fill="none" stroke="#1565C0" stroke-width="1.6" stroke-linecap="round" stroke-linejoin="round"></path>
  <rect x="140" y="62" width="40" height="38" fill="#E53935" stroke="#B71C1C" stroke-width="1.5"></rect>
  <rect x="140" y="100" width="40" height="38" fill="#1565C0" stroke="#0D47A1" stroke-width="1.5"></rect>
  <text x="160" y="88" text-anchor="middle" font-size="16" font-weight="800" fill="#fff">N</text>
  <text x="160" y="126" text-anchor="middle" font-size="16" font-weight="800" fill="#fff">S</text>
</svg>