<svg xmlns="http://www.w3.org/2000/svg" viewBox="0 0 280 240" role="img" style="color:var(--c-text,#333)" stroke-linejoin="round" stroke-linecap="round"><title>Chưa đủ dữ liệu chuyên đề</title>
<ellipse cx="140" cy="214" rx="92" ry="10" fill="currentColor" opacity=".06"></ellipse>
<g>
    <line x1="120" y1="70" x2="120" y2="58" stroke="currentColor" stroke-width="2.6" stroke-linecap="round"></line>
    <path d="M120.0,45.5 L121.5,49.9 L126.2,50.0 L122.5,52.8 L123.8,57.3 L120.0,54.6 L116.2,57.3 L117.5,52.8 L113.8,50.0 L118.5,49.9 Z" fill="var(--c-star,#FFB23E)" stroke="currentColor" stroke-width="1.5"></path>
    <circle cx="120" cy="112" r="42" fill="var(--c-primary-soft)" stroke="currentColor" stroke-width="3"></circle>
    <ellipse cx="99" cy="120.4" rx="6.72" ry="5.04" fill="#FF8FA3" opacity=".45"></ellipse>
    <ellipse cx="141" cy="120.4" rx="6.72" ry="5.04" fill="#FF8FA3" opacity=".45"></ellipse>
    <circle cx="106.56" cy="111.16" r="4.62" fill="currentColor"></circle><circle cx="133.44" cy="111.16" r="4.62" fill="currentColor"></circle><circle cx="120" cy="126.28" r="4.2" fill="none" stroke="currentColor" stroke-width="3"></circle></g>
<path d="M150 150 h70 v8 a4 4 0 0 1 -4 4 h-66 z" fill="var(--c-primary-soft)" stroke="currentColor" stroke-width="2.5"></path>
<path d="M150 150 l38 -14 32 14 -36 12z" fill="var(--c-card)" stroke="currentColor" stroke-width="2.5"></path>
<line x1="186" y1="138" x2="186" y2="160" stroke="currentColor" stroke-width="1.6"></line>
<text x="190" y="64" font-family="&#39;Fredoka&#39;,Arial" font-size="40" font-weight="800" fill="var(--c-primary)">?</text>
<rect x="36" y="150" width="44" height="34" rx="5" fill="none" stroke="var(--c-text-soft)" stroke-width="2.4" opacity=".55"></rect><path d="M36 158 h16 l4 -6 h0" fill="none" stroke="var(--c-text-soft)" stroke-width="2.4" opacity=".55"></path></svg>