<svg xmlns="http://www.w3.org/2000/svg" viewBox="0 0 140 140" role="img" stroke-linejoin="round" stroke-linecap="round"><title>Đại bàng – 100</title><ellipse cx="70" cy="128" rx="30" ry="6" fill="#000" opacity=".08"></ellipse>
<path d="M70 50 q-40 -22 -54 -6 q18 6 26 14 q-22 -2 -30 8 q22 4 34 14z" fill="#8D6E63" stroke="#3A2A33" stroke-width="3"></path>
<path d="M70 50 q40 -22 54 -6 q-18 6 -26 14 q22 -2 30 8 q-22 4 -34 14z" fill="#A1887F" stroke="#3A2A33" stroke-width="3"></path>
<path d="M58 44 q12 -14 24 0 q2 30 -12 46 q-14 -16 -12 -46z" fill="#EFEBE9" stroke="#3A2A33" stroke-width="3"></path>
<path d="M64 56 l-8 4 8 4z" fill="#FFB300" stroke="#3A2A33" stroke-width="2"></path>
<circle cx="74" cy="54" r="3" fill="#3A2A33"></circle>
<text x="70" y="116" text-anchor="middle" font-family="Arial Black, Arial, sans-serif" font-weight="900" font-size="34" fill="#fff" stroke="#3A2A33" stroke-width="2" paint-order="stroke">100</text></svg>