<svg xmlns="http://www.w3.org/2000/svg" viewBox="0 0 140 140" role="img" stroke-linejoin="round" stroke-linecap="round"><title>Rồng – 14</title><ellipse cx="70" cy="128" rx="30" ry="6" fill="#000" opacity=".08"></ellipse>
<path d="M48 96 q-14 -8 -14 -30 q0 -28 30 -30 q30 0 34 24 q2 18 -10 30 q-6 6 -18 8z" fill="#66BB6A" stroke="#3A2A33" stroke-width="3"></path>
<path d="M58 40 l-6 -16 12 8z M70 36 l0 -18 10 14z" fill="#AED581" stroke="#3A2A33" stroke-width="2.4"></path>
<path d="M84 78 q18 0 22 -10 q-2 12 -16 18 q-8 2 -10 -4z" fill="#81C784" stroke="#3A2A33" stroke-width="2.4"></path>
<circle cx="60" cy="58" r="5" fill="#fff" stroke="#3A2A33" stroke-width="2"></circle><circle cx="61" cy="59" r="2.4" fill="#3A2A33"></circle>
<ellipse cx="44" cy="74" rx="9" ry="6" fill="#A5D6A7" stroke="#3A2A33" stroke-width="2.4"></ellipse><circle cx="41" cy="73" r="1.6" fill="#3A2A33"></circle><circle cx="47" cy="73" r="1.6" fill="#3A2A33"></circle>
<circle cx="104" cy="104" r="17" fill="#FFC93C" stroke="#3A2A33" stroke-width="2.4"></circle>
<text x="104" y="111" text-anchor="middle" font-family="Arial Black, Arial" font-weight="900" font-size="17" fill="#3A2A33">14</text></svg>