<svg xmlns="http://www.w3.org/2000/svg" viewBox="0 0 140 140" role="img" stroke-linejoin="round" stroke-linecap="round"><title>Kỳ lân</title><ellipse cx="70" cy="128" rx="30" ry="6" fill="#000" opacity=".08"></ellipse>
<path d="M54 102 q-16 -10 -16 -34 q0 -28 30 -32 q30 2 30 30 q0 22 -10 32z" fill="#FCE4EC" stroke="#3A2A33" stroke-width="3"></path>
<path d="M70 34 l8 -22 6 4 -8 22z" fill="#FFC93C" stroke="#3A2A33" stroke-width="2.4"></path>
<path d="M50 44 q-14 -2 -22 -14 q14 2 24 8 M52 40 q-10 -8 -10 -22 q10 8 14 18 M56 38 q-2 -14 4 -24 q4 12 2 22" fill="#CE93D8" stroke="#3A2A33" stroke-width="2.4"></path>
<path d="M88 50 q12 -2 16 6 q-2 8 -12 8z" fill="#F8BBD0" stroke="#3A2A33" stroke-width="2.4"></path>
<circle cx="62" cy="64" r="4.5" fill="#3A2A33"></circle>
<ellipse cx="78" cy="92" rx="9" ry="7" fill="#F48FB1" stroke="#3A2A33" stroke-width="2.4"></ellipse><circle cx="74" cy="90" r="1.6" fill="#3A2A33"></circle></svg>