<svg xmlns="http://www.w3.org/2000/svg" viewBox="0 0 140 140" role="img" stroke-linejoin="round" stroke-linecap="round"><title>Dải ngân hà – 30</title><ellipse cx="70" cy="128" rx="30" ry="6" fill="#000" opacity=".08"></ellipse>
<circle cx="70" cy="68" r="50" fill="#311B92" stroke="#3A2A33" stroke-width="3"></circle>
<path d="M70 68 q26 -20 36 8 q-6 -16 -22 -14 M70 68 q-26 20 -36 -8 q6 16 22 14" fill="none" stroke="#9575CD" stroke-width="6" opacity=".9"></path>
<path d="M70 68 q18 4 22 24 M70 68 q-18 -4 -22 -24" fill="none" stroke="#7E57C2" stroke-width="5" opacity=".7"></path>
<path d="M34.0,41.0 L34.8,42.9 L36.9,43.1 L35.2,44.4 L35.8,46.4 L34.0,45.3 L32.2,46.4 L32.8,44.4 L31.1,43.1 L33.2,42.9 Z" fill="#fff"></path><path d="M108.0,49.0 L108.8,50.9 L110.9,51.1 L109.2,52.4 L109.8,54.4 L108.0,53.3 L106.2,54.4 L106.8,52.4 L105.1,51.1 L107.2,50.9 Z" fill="#FFC93C"></path><path d="M46.0,95.0 L46.8,96.9 L48.9,97.1 L47.2,98.4 L47.8,100.4 L46.0,99.3 L44.2,100.4 L44.8,98.4 L43.1,97.1 L45.2,96.9 Z" fill="#4DD0E1"></path><path d="M100.0,93.0 L100.8,94.9 L102.9,95.1 L101.2,96.4 L101.8,98.4 L100.0,97.3 L98.2,98.4 L98.8,96.4 L97.1,95.1 L99.2,94.9 Z" fill="#fff"></path><path d="M70.0,27.0 L70.8,28.9 L72.9,29.1 L71.2,30.4 L71.8,32.4 L70.0,31.3 L68.2,32.4 L68.8,30.4 L67.1,29.1 L69.2,28.9 Z" fill="#F48FB1"></path>
<text x="70" y="80" text-anchor="middle" font-family="Arial Black, Arial, sans-serif" font-weight="900" font-size="34" fill="#fff" stroke="#3A2A33" stroke-width="2" paint-order="stroke">30</text></svg>