<svg xmlns="http://www.w3.org/2000/svg" viewBox="0 0 360 110" font-family="Arial, sans-serif">
  <title>Snippet bảng tuần hoàn — chu kì 1–3</title>
  <text x="180" y="22" text-anchor="middle" font-size="12" font-weight="800" fill="#0D47A1">Bảng tuần hoàn (chu kì 1–3)</text>
  <rect x="18" y="40" width="16" height="16" fill="#BBDEFB" stroke="#90A4AE" stroke-width="0.8"></rect><text x="26" y="51.5" text-anchor="middle" font-size="8" font-weight="700" fill="#263238">H</text><rect x="324" y="40" width="16" height="16" fill="#fff" stroke="#90A4AE" stroke-width="0.8"></rect><text x="332" y="51.5" text-anchor="middle" font-size="8" font-weight="700" fill="#263238">He</text><rect x="18" y="58" width="16" height="16" fill="#BBDEFB" stroke="#90A4AE" stroke-width="0.8"></rect><text x="26" y="69.5" text-anchor="middle" font-size="8" font-weight="700" fill="#263238">Li</text><rect x="36" y="58" width="16" height="16" fill="#fff" stroke="#90A4AE" stroke-width="0.8"></rect><text x="44" y="69.5" text-anchor="middle" font-size="8" font-weight="700" fill="#263238">Be</text><rect x="234" y="58" width="16" height="16" fill="#fff" stroke="#90A4AE" stroke-width="0.8"></rect><text x="242" y="69.5" text-anchor="middle" font-size="8" font-weight="700" fill="#263238">B</text><rect x="252" y="58" width="16" height="16" fill="#fff" stroke="#90A4AE" stroke-width="0.8"></rect><text x="260" y="69.5" text-anchor="middle" font-size="8" font-weight="700" fill="#263238">C</text><rect x="270" y="58" width="16" height="16" fill="#fff" stroke="#90A4AE" stroke-width="0.8"></rect><text x="278" y="69.5" text-anchor="middle" font-size="8" font-weight="700" fill="#263238">N</text><rect x="288" y="58" width="16" height="16" fill="#fff" stroke="#90A4AE" stroke-width="0.8"></rect><text x="296" y="69.5" text-anchor="middle" font-size="8" font-weight="700" fill="#263238">O</text><rect x="306" y="58" width="16" height="16" fill="#FFCCBC" stroke="#90A4AE" stroke-width="0.8"></rect><text x="314" y="69.5" text-anchor="middle" font-size="8" font-weight="700" fill="#263238">F</text><rect x="324" y="58" width="16" height="16" fill="#fff" stroke="#90A4AE" stroke-width="0.8"></rect><text x="332" y="69.5" text-anchor="middle" font-size="8" font-weight="700" fill="#263238">Ne</text><rect x="18" y="76" width="16" height="16" fill="#BBDEFB" stroke="#90A4AE" stroke-width="0.8"></rect><text x="26" y="87.5" text-anchor="middle" font-size="8" font-weight="700" fill="#263238">Na</text><rect x="36" y="76" width="16" height="16" fill="#fff" stroke="#90A4AE" stroke-width="0.8"></rect><text x="44" y="87.5" text-anchor="middle" font-size="8" font-weight="700" fill="#263238">Mg</text><rect x="234" y="76" width="16" height="16" fill="#fff" stroke="#90A4AE" stroke-width="0.8"></rect><text x="242" y="87.5" text-anchor="middle" font-size="8" font-weight="700" fill="#263238">Al</text><rect x="252" y="76" width="16" height="16" fill="#fff" stroke="#90A4AE" stroke-width="0.8"></rect><text x="260" y="87.5" text-anchor="middle" font-size="8" font-weight="700" fill="#263238">Si</text><rect x="270" y="76" width="16" height="16" fill="#fff" stroke="#90A4AE" stroke-width="0.8"></rect><text x="278" y="87.5" text-anchor="middle" font-size="8" font-weight="700" fill="#263238">P</text><rect x="288" y="76" width="16" height="16" fill="#fff" stroke="#90A4AE" stroke-width="0.8"></rect><text x="296" y="87.5" text-anchor="middle" font-size="8" font-weight="700" fill="#263238">S</text><rect x="306" y="76" width="16" height="16" fill="#FFCCBC" stroke="#90A4AE" stroke-width="0.8"></rect><text x="314" y="87.5" text-anchor="middle" font-size="8" font-weight="700" fill="#263238">Cl</text><rect x="324" y="76" width="16" height="16" fill="#fff" stroke="#90A4AE" stroke-width="0.8"></rect><text x="332" y="87.5" text-anchor="middle" font-size="8" font-weight="700" fill="#263238">Ar</text>
  <rect x="18" y="40" width="16" height="52" fill="none" stroke="#1565C0" stroke-width="1.5"></rect>
  <rect x="306" y="58" width="16" height="34" fill="none" stroke="#E65100" stroke-width="1.5"></rect>
  <text x="26" y="105" text-anchor="middle" font-size="8" fill="#1565C0">IA</text>
  <text x="314" y="105" text-anchor="middle" font-size="8" fill="#E65100">VIIA</text>
</svg>