<svg xmlns="http://www.w3.org/2000/svg" viewBox="0 0 320 230" font-family="Arial, sans-serif">
  <title>Sơ đồ điện phân</title>
  <path d="M50,80 L50,200 L270,200 L270,80" fill="#BBDEFB" opacity="0.6" stroke="#546E7A" stroke-width="2"></path>
  <rect x="110" y="58" width="10" height="130" fill="#607D8B" stroke="#37474F" stroke-width="1.5"></rect>
  <rect x="200" y="58" width="10" height="130" fill="#607D8B" stroke="#37474F" stroke-width="1.5"></rect>
  <polyline points="115,58 115,32 150,32" fill="none" stroke="#0D47A1" stroke-width="2"></polyline>
  <polyline points="170,32 205,32 205,58" fill="none" stroke="#0D47A1" stroke-width="2"></polyline>
  <line x1="150" y1="22" x2="150" y2="42" stroke="#0D47A1" stroke-width="2"></line><line x1="170" y1="26" x2="170" y2="38" stroke="#0D47A1" stroke-width="4"></line>
  <text x="160" y="16" text-anchor="middle" font-size="10" fill="#0D47A1">nguồn điện</text>
  <circle cx="115" cy="100" r="3" fill="none" stroke="#2E7D32" stroke-width="1.4"></circle><circle cx="115" cy="90" r="3" fill="none" stroke="#2E7D32" stroke-width="1.4"></circle><circle cx="115" cy="80" r="3" fill="none" stroke="#2E7D32" stroke-width="1.4"></circle>
  <circle cx="205" cy="100" r="3" fill="none" stroke="#C62828" stroke-width="1.4"></circle><circle cx="205" cy="90" r="3" fill="none" stroke="#C62828" stroke-width="1.4"></circle><circle cx="205" cy="80" r="3" fill="none" stroke="#C62828" stroke-width="1.4"></circle>
  <text x="115" y="216" text-anchor="middle" font-size="11" font-weight="700" fill="#C62828">Catot (−)</text>
  <text x="205" y="216" text-anchor="middle" font-size="11" font-weight="700" fill="#0D47A1">Anot (+)</text>
</svg>