<svg xmlns="http://www.w3.org/2000/svg" viewBox="0 0 340 200" font-family="Arial, sans-serif">
  <title>Liên kết ion NaCl — Na nhường e cho Cl</title>
  <circle cx="70" cy="80" r="30" fill="#FFE082" stroke="#E65100" stroke-width="2"></circle><text x="70" y="86" text-anchor="middle" font-size="16" font-weight="800" fill="#E65100">Na</text>
  <circle cx="200" cy="80" r="30" fill="#A5D6A7" stroke="#2E7D32" stroke-width="2"></circle><text x="200" y="86" text-anchor="middle" font-size="16" font-weight="800" fill="#1B5E20">Cl</text>
  <line x1="102" y1="68" x2="168" y2="68" stroke="#C62828" stroke-width="2"></line><path d="M160.7,71.3 L168,68 L160.7,64.7" fill="none" stroke="#C62828" stroke-width="2" stroke-linecap="round" stroke-linejoin="round"></path><text x="135" y="56" text-anchor="middle" font-size="12" font-weight="700" fill="#C62828">e⁻</text>
  <text x="70" y="132" text-anchor="middle" font-size="14" font-weight="800" fill="#0D47A1">Na⁺</text>
  <text x="200" y="132" text-anchor="middle" font-size="14" font-weight="800" fill="#0D47A1">Cl⁻</text>
  <g transform="translate(250,30)">
  <rect x="0" y="0" width="24" height="24" fill="#FFE082" stroke="#90A4AE" stroke-width="1"></rect><text x="12" y="16" text-anchor="middle" font-size="8" font-weight="700" fill="#37474F">Na⁺</text><rect x="26" y="0" width="24" height="24" fill="#A5D6A7" stroke="#90A4AE" stroke-width="1"></rect><text x="38" y="16" text-anchor="middle" font-size="8" font-weight="700" fill="#37474F">Cl⁻</text><rect x="52" y="0" width="24" height="24" fill="#FFE082" stroke="#90A4AE" stroke-width="1"></rect><text x="64" y="16" text-anchor="middle" font-size="8" font-weight="700" fill="#37474F">Na⁺</text><rect x="0" y="26" width="24" height="24" fill="#A5D6A7" stroke="#90A4AE" stroke-width="1"></rect><text x="12" y="42" text-anchor="middle" font-size="8" font-weight="700" fill="#37474F">Cl⁻</text><rect x="26" y="26" width="24" height="24" fill="#FFE082" stroke="#90A4AE" stroke-width="1"></rect><text x="38" y="42" text-anchor="middle" font-size="8" font-weight="700" fill="#37474F">Na⁺</text><rect x="52" y="26" width="24" height="24" fill="#A5D6A7" stroke="#90A4AE" stroke-width="1"></rect><text x="64" y="42" text-anchor="middle" font-size="8" font-weight="700" fill="#37474F">Cl⁻</text><rect x="0" y="52" width="24" height="24" fill="#FFE082" stroke="#90A4AE" stroke-width="1"></rect><text x="12" y="68" text-anchor="middle" font-size="8" font-weight="700" fill="#37474F">Na⁺</text><rect x="26" y="52" width="24" height="24" fill="#A5D6A7" stroke="#90A4AE" stroke-width="1"></rect><text x="38" y="68" text-anchor="middle" font-size="8" font-weight="700" fill="#37474F">Cl⁻</text><rect x="52" y="52" width="24" height="24" fill="#FFE082" stroke="#90A4AE" stroke-width="1"></rect><text x="64" y="68" text-anchor="middle" font-size="8" font-weight="700" fill="#37474F">Na⁺</text>
  <text x="39" y="98" text-anchor="middle" font-size="10" fill="#546E7A">tinh thể NaCl</text>
  </g>
</svg>