<svg xmlns="http://www.w3.org/2000/svg" viewBox="0 0 120 120" role="img" class="pet pet-t4 pet-celebrate" stroke-linejoin="round" stroke-linecap="round"><title>Pet trưởng thành (celebrate)</title><ellipse cx="60" cy="113" rx="32" ry="6" fill="#000" opacity=".08"></ellipse><path d="M38 72 q-28 -16 -32 6 q-2 16 13 15 q10 -9 19 -9z" fill="#4CAF50" stroke="#34503C" stroke-width="2.6"></path><path d="M82 72 q28 -16 32 6 q2 16 -13 15 q-10 -9 -19 -9z" fill="#4CAF50" stroke="#34503C" stroke-width="2.6"></path><path d="M86 92 q22 10 22 -10" fill="none" stroke="#34503C" stroke-width="5" stroke-linecap="round"></path><path d="M104 78 l8 -3 -1 9z" fill="#4CAF50" stroke="#34503C" stroke-width="2"></path><path d="M34 78 q-14 -14 -12 -28" fill="none" stroke="#66BB6A" stroke-width="7" stroke-linecap="round"></path><ellipse cx="60" cy="82" rx="25" ry="27" fill="#66BB6A" stroke="#34503C" stroke-width="3"></ellipse><ellipse cx="60" cy="88" rx="15" ry="16" fill="#E8F5E9" opacity=".85"></ellipse><ellipse cx="47" cy="106" rx="9" ry="6" fill="#4CAF50" stroke="#34503C" stroke-width="2.6"></ellipse><ellipse cx="73" cy="106" rx="9" ry="6" fill="#4CAF50" stroke="#34503C" stroke-width="2.6"></ellipse><g><rect x="49" y="88" width="22" height="16" rx="2" fill="#42A5F5" stroke="#34503C" stroke-width="2.4"></rect><line x1="60" y1="88" x2="60" y2="104" stroke="#34503C" stroke-width="1.6"></line><line x1="53" y1="94" x2="57.5" y2="94" stroke="#fff" stroke-width="1.4"></line><line x1="62.5" y1="94" x2="67" y2="94" stroke="#fff" stroke-width="1.4"></line><line x1="53" y1="99" x2="57.5" y2="99" stroke="#fff" stroke-width="1.4"></line><line x1="62.5" y1="99" x2="67" y2="99" stroke="#fff" stroke-width="1.4"></line></g><path d="M49 26 l-5 -14 11 8z M71 26 l5 -14 -11 8z" fill="#FFC93C" stroke="#34503C" stroke-width="2.4"></path><circle cx="60" cy="46" r="23" fill="#66BB6A" stroke="#34503C" stroke-width="3"></circle><circle cx="43" cy="50" r="4.5" fill="#FF8FA3" opacity=".55"></circle><circle cx="77" cy="50" r="4.5" fill="#FF8FA3" opacity=".55"></circle><circle cx="52" cy="46" r="8.5" fill="#fff"></circle><circle cx="68" cy="46" r="8.5" fill="#fff"></circle><g class="pet-eyes" style="transform-box:fill-box;transform-origin:center"><ellipse cx="52" cy="46" rx="4.6" ry="5.427999999999999" fill="#fff" stroke="#34503C" stroke-width="2.4"></ellipse><ellipse cx="68" cy="46" rx="4.6" ry="5.427999999999999" fill="#fff" stroke="#34503C" stroke-width="2.4"></ellipse><circle cx="52" cy="46" r="2.576" fill="#34503C"></circle><circle cx="68" cy="46" r="2.576" fill="#34503C"></circle><circle cx="53.288" cy="44.16" r="1.012" fill="#fff"></circle><circle cx="69.288" cy="44.16" r="1.012" fill="#fff"></circle></g><g fill="none" stroke="#34503C" stroke-width="2.6"><circle cx="52" cy="46" r="9"></circle><circle cx="68" cy="46" r="9"></circle><path d="M61 46 h-2"></path><path d="M43 44 l-6 -3"></path></g><path d="M51 60 q9 12 18 0 z" fill="#7A3B2E" stroke="#34503C" stroke-width="2"></path><path d="M56 66 q4 4 8 0" fill="#FF8FA3"></path><g fill="#FFC93C" stroke="#34503C" stroke-width="1" class="pet-spark"><path d="M18.0,33.0 L19.3,36.2 L22.8,36.5 L20.1,38.7 L20.9,42.0 L18.0,40.3 L15.1,42.0 L15.9,38.7 L13.2,36.5 L16.7,36.2 Z"></path><path d="M102.0,35.4 L103.2,38.3 L106.4,38.6 L104.0,40.6 L104.7,43.7 L102.0,42.1 L99.3,43.7 L100.0,40.6 L97.6,38.6 L100.8,38.3 Z"></path><path d="M26.0,66.4 L27.0,68.7 L29.4,68.9 L27.5,70.5 L28.1,72.9 L26.0,71.6 L23.9,72.9 L24.5,70.5 L22.6,68.9 L25.0,68.7 Z"></path></g></svg>