<svg xmlns="http://www.w3.org/2000/svg" viewBox="0 0 120 120" role="img" class="pet pet-t3 pet-celebrate" stroke-linejoin="round" stroke-linecap="round"><title>Pet trẻ con (celebrate)</title><ellipse cx="60" cy="113" rx="32" ry="6" fill="#000" opacity=".08"></ellipse><path d="M40 80 q-24 -8 -28 12 q15 4 28 -3z" fill="#4CAF50" stroke="#34503C" stroke-width="2.6"></path><path d="M80 80 q24 -8 28 12 q-15 4 -28 -3z" fill="#4CAF50" stroke="#34503C" stroke-width="2.6"></path><path d="M36 80 q-14 -12 -12 -26" fill="none" stroke="#66BB6A" stroke-width="7" stroke-linecap="round"></path><path d="M84 80 q14 -12 12 -26" fill="none" stroke="#66BB6A" stroke-width="7" stroke-linecap="round"></path><ellipse cx="60" cy="84" rx="27" ry="24" fill="#66BB6A" stroke="#34503C" stroke-width="3"></ellipse><ellipse cx="60" cy="90" rx="16" ry="14" fill="#E8F5E9" opacity=".85"></ellipse><ellipse cx="48" cy="105" rx="9" ry="6" fill="#4CAF50" stroke="#34503C" stroke-width="2.6"></ellipse><ellipse cx="72" cy="105" rx="9" ry="6" fill="#4CAF50" stroke="#34503C" stroke-width="2.6"></ellipse><path d="M48 28 l-5 -14 11 8z M72 28 l5 -14 -11 8z" fill="#FFC93C" stroke="#34503C" stroke-width="2.4"></path><circle cx="60" cy="50" r="25" fill="#66BB6A" stroke="#34503C" stroke-width="3"></circle><g><path d="M40 30 l-11 -5 0 11z" fill="#EF5350" stroke="#34503C" stroke-width="2"></path><path d="M40 30 l11 -5 0 11z" fill="#EF5350" stroke="#34503C" stroke-width="2"></path><circle cx="40" cy="30" r="3.6" fill="#EF5350" stroke="#34503C" stroke-width="2"></circle></g><circle cx="42" cy="54" r="4.5" fill="#FF8FA3" opacity=".55"></circle><circle cx="78" cy="54" r="4.5" fill="#FF8FA3" opacity=".55"></circle><g class="pet-eyes" style="transform-box:fill-box;transform-origin:center"><ellipse cx="51" cy="50" rx="6" ry="7.08" fill="#fff" stroke="#34503C" stroke-width="2.4"></ellipse><ellipse cx="69" cy="50" rx="6" ry="7.08" fill="#fff" stroke="#34503C" stroke-width="2.4"></ellipse><circle cx="51" cy="50" r="3.3600000000000003" fill="#34503C"></circle><circle cx="69" cy="50" r="3.3600000000000003" fill="#34503C"></circle><circle cx="52.68" cy="47.6" r="1.32" fill="#fff"></circle><circle cx="70.68" cy="47.6" r="1.32" fill="#fff"></circle></g><path d="M51 62 q9 12 18 0 z" fill="#7A3B2E" stroke="#34503C" stroke-width="2"></path><path d="M56 68 q4 4 8 0" fill="#FF8FA3"></path><g fill="#FFC93C" stroke="#34503C" stroke-width="1" class="pet-spark"><path d="M20.0,35.0 L21.3,38.2 L24.8,38.5 L22.1,40.7 L22.9,44.0 L20.0,42.3 L17.1,44.0 L17.9,40.7 L15.2,38.5 L18.7,38.2 Z"></path><path d="M100.0,37.6 L101.2,40.4 L104.2,40.6 L101.9,42.6 L102.6,45.6 L100.0,44.0 L97.4,45.6 L98.1,42.6 L95.8,40.6 L98.8,40.4 Z"></path><path d="M60.0,7.8 L61.1,10.5 L64.0,10.7 L61.8,12.6 L62.5,15.4 L60.0,13.9 L57.5,15.4 L58.2,12.6 L56.0,10.7 L58.9,10.5 Z"></path></g></svg>