<svg xmlns="http://www.w3.org/2000/svg" viewBox="0 0 120 120" role="img" class="pet pet-t3 pet-happy" stroke-linejoin="round" stroke-linecap="round"><title>Pet trẻ con (happy)</title><ellipse cx="60" cy="113" rx="32" ry="6" fill="#000" opacity=".08"></ellipse><path d="M40 80 q-24 -8 -28 12 q15 4 28 -3z" fill="#4CAF50" stroke="#34503C" stroke-width="2.6"></path><path d="M80 80 q24 -8 28 12 q-15 4 -28 -3z" fill="#4CAF50" stroke="#34503C" stroke-width="2.6"></path><ellipse cx="34" cy="88" rx="8" ry="6.5" fill="#66BB6A" stroke="#34503C" stroke-width="2.6" transform="rotate(-18 34 88)"></ellipse><ellipse cx="86" cy="88" rx="8" ry="6.5" fill="#66BB6A" stroke="#34503C" stroke-width="2.6" transform="rotate(18 86 88)"></ellipse><ellipse cx="60" cy="84" rx="27" ry="24" fill="#66BB6A" stroke="#34503C" stroke-width="3"></ellipse><ellipse cx="60" cy="90" rx="16" ry="14" fill="#E8F5E9" opacity=".85"></ellipse><ellipse cx="48" cy="105" rx="9" ry="6" fill="#4CAF50" stroke="#34503C" stroke-width="2.6"></ellipse><ellipse cx="72" cy="105" rx="9" ry="6" fill="#4CAF50" stroke="#34503C" stroke-width="2.6"></ellipse><path d="M48 28 l-5 -14 11 8z M72 28 l5 -14 -11 8z" fill="#FFC93C" stroke="#34503C" stroke-width="2.4"></path><circle cx="60" cy="50" r="25" fill="#66BB6A" stroke="#34503C" stroke-width="3"></circle><g><path d="M40 30 l-11 -5 0 11z" fill="#EF5350" stroke="#34503C" stroke-width="2"></path><path d="M40 30 l11 -5 0 11z" fill="#EF5350" stroke="#34503C" stroke-width="2"></path><circle cx="40" cy="30" r="3.6" fill="#EF5350" stroke="#34503C" stroke-width="2"></circle></g><circle cx="42" cy="54" r="4.5" fill="#FF8FA3" opacity=".55"></circle><circle cx="78" cy="54" r="4.5" fill="#FF8FA3" opacity=".55"></circle><g class="pet-eyes" style="transform-box:fill-box;transform-origin:center"><path d="M45 50 q6 6.6000000000000005 12 0" fill="none" stroke="#34503C" stroke-width="3" stroke-linecap="round"></path><path d="M63 50 q6 6.6000000000000005 12 0" fill="none" stroke="#34503C" stroke-width="3" stroke-linecap="round"></path></g><path d="M52 62 q8 8 16 0" fill="none" stroke="#34503C" stroke-width="3" stroke-linecap="round"></path></svg>