<svg xmlns="http://www.w3.org/2000/svg" viewBox="0 0 120 120" role="img" class="pet pet-t1 pet-try" stroke-linejoin="round" stroke-linecap="round"><title>Trứng pet lắc nhẹ</title><ellipse cx="60" cy="113" rx="32" ry="6" fill="#000" opacity=".08"></ellipse><path d="M60 14 C 88 14 98 50 98 72 C 98 98 80 108 60 108 C 40 108 22 98 22 72 C 22 50 32 14 60 14 Z" fill="#FFF7E2" stroke="#8A7A45" stroke-width="3"></path><g fill="#A5D6A7"><ellipse cx="43" cy="56" rx="7" ry="9"></ellipse><ellipse cx="76" cy="46" rx="6" ry="8"></ellipse><ellipse cx="66" cy="82" rx="8" ry="10"></ellipse><ellipse cx="40" cy="88" rx="5" ry="6"></ellipse><ellipse cx="82" cy="78" rx="5.5" ry="7"></ellipse></g><path d="M34 40 q10 -10 24 -8" fill="none" stroke="#fff" stroke-width="4" opacity=".6"></path><path d="M90 38 q-4 5 0 8.5 q4 -3.5 0 -8.5z" fill="#7EC8E3" stroke="#34503C" stroke-width="1.4"></path><path d="M14 60 q-3 6 0 12 M106 64 q3 6 0 12" fill="none" stroke="#8A7A45" stroke-width="2.4" opacity=".7"></path></svg>