<svg xmlns="http://www.w3.org/2000/svg" viewBox="0 0 120 120" role="img" class="pet pet-t2 pet-try" stroke-linejoin="round" stroke-linecap="round"><title>Pet bé con (try)</title><ellipse cx="60" cy="113" rx="32" ry="6" fill="#000" opacity=".08"></ellipse><ellipse cx="28" cy="78" rx="8" ry="6" fill="#66BB6A" stroke="#34503C" stroke-width="2.6" transform="rotate(-20 28 78)"></ellipse><ellipse cx="92" cy="78" rx="8" ry="6" fill="#66BB6A" stroke="#34503C" stroke-width="2.6" transform="rotate(20 92 78)"></ellipse><ellipse cx="44" cy="100" rx="9" ry="6" fill="#4CAF50" stroke="#34503C" stroke-width="2.6"></ellipse><ellipse cx="76" cy="100" rx="9" ry="6" fill="#4CAF50" stroke="#34503C" stroke-width="2.6"></ellipse><path d="M46 32 l-5 -14 11 8z M74 32 l5 -14 -11 8z" fill="#FFC93C" stroke="#34503C" stroke-width="2.4"></path><circle cx="60" cy="64" r="36" fill="#66BB6A" stroke="#34503C" stroke-width="3"></circle><ellipse cx="60" cy="74" rx="22" ry="18" fill="#E8F5E9" opacity=".85"></ellipse><circle cx="40" cy="70" r="4.5" fill="#FF8FA3" opacity=".55"></circle><circle cx="80" cy="70" r="4.5" fill="#FF8FA3" opacity=".55"></circle><g class="pet-eyes" style="transform-box:fill-box;transform-origin:center"><ellipse cx="49" cy="62" rx="7" ry="8.26" fill="#fff" stroke="#34503C" stroke-width="2.4"></ellipse><ellipse cx="71" cy="62" rx="7" ry="8.26" fill="#fff" stroke="#34503C" stroke-width="2.4"></ellipse><circle cx="49" cy="64.2" r="3.9200000000000004" fill="#34503C"></circle><circle cx="71" cy="64.2" r="3.9200000000000004" fill="#34503C"></circle><circle cx="50.96" cy="61.400000000000006" r="1.54" fill="#fff"></circle><circle cx="72.96" cy="61.400000000000006" r="1.54" fill="#fff"></circle><path d="M41 54.3 q8 -2 16 0" fill="none" stroke="#34503C" stroke-width="2" stroke-linecap="round"></path><path d="M63 54.3 q8 -2 16 0" fill="none" stroke="#34503C" stroke-width="2" stroke-linecap="round"></path></g><ellipse cx="60" cy="80" rx="5" ry="4" fill="#7A3B2E" stroke="#34503C" stroke-width="2"></ellipse><path d="M92 46 q-4 5 0 8.5 q4 -3.5 0 -8.5z" fill="#7EC8E3" stroke="#34503C" stroke-width="1.4"></path></svg>