<svg xmlns="http://www.w3.org/2000/svg" viewBox="0 0 120 120" role="img" class="pet pet-t1 pet-happy" stroke-linejoin="round" stroke-linecap="round"><title>Trứng pet đang yên</title><ellipse cx="60" cy="113" rx="32" ry="6" fill="#000" opacity=".08"></ellipse><path d="M60 14 C 88 14 98 50 98 72 C 98 98 80 108 60 108 C 40 108 22 98 22 72 C 22 50 32 14 60 14 Z" fill="#FFF7E2" stroke="#8A7A45" stroke-width="3"></path><g fill="#A5D6A7"><ellipse cx="43" cy="56" rx="7" ry="9"></ellipse><ellipse cx="76" cy="46" rx="6" ry="8"></ellipse><ellipse cx="66" cy="82" rx="8" ry="10"></ellipse><ellipse cx="40" cy="88" rx="5" ry="6"></ellipse><ellipse cx="82" cy="78" rx="5.5" ry="7"></ellipse></g><path d="M34 40 q10 -10 24 -8" fill="none" stroke="#fff" stroke-width="4" opacity=".6"></path><g fill="#FFC93C" stroke="#34503C" stroke-width="1" class="pet-spark"><path d="M30.0,30.0 L31.1,32.5 L33.8,32.8 L31.7,34.6 L32.4,37.2 L30.0,35.8 L27.6,37.2 L28.3,34.6 L26.2,32.8 L28.9,32.5 Z"></path><path d="M100.0,56.6 L100.9,58.8 L103.2,58.9 L101.5,60.5 L102.0,62.8 L100.0,61.5 L98.0,62.8 L98.5,60.5 L96.8,58.9 L99.1,58.8 Z"></path></g></svg>