<svg xmlns="http://www.w3.org/2000/svg" viewBox="0 0 120 120" role="img" class="pet pet-t2 pet-happy" stroke-linejoin="round" stroke-linecap="round"><title>Pet bé con (happy)</title><ellipse cx="60" cy="113" rx="32" ry="6" fill="#000" opacity=".08"></ellipse><ellipse cx="28" cy="78" rx="8" ry="6" fill="#66BB6A" stroke="#34503C" stroke-width="2.6" transform="rotate(-20 28 78)"></ellipse><ellipse cx="92" cy="78" rx="8" ry="6" fill="#66BB6A" stroke="#34503C" stroke-width="2.6" transform="rotate(20 92 78)"></ellipse><ellipse cx="44" cy="100" rx="9" ry="6" fill="#4CAF50" stroke="#34503C" stroke-width="2.6"></ellipse><ellipse cx="76" cy="100" rx="9" ry="6" fill="#4CAF50" stroke="#34503C" stroke-width="2.6"></ellipse><path d="M46 32 l-5 -14 11 8z M74 32 l5 -14 -11 8z" fill="#FFC93C" stroke="#34503C" stroke-width="2.4"></path><circle cx="60" cy="64" r="36" fill="#66BB6A" stroke="#34503C" stroke-width="3"></circle><ellipse cx="60" cy="74" rx="22" ry="18" fill="#E8F5E9" opacity=".85"></ellipse><circle cx="40" cy="70" r="4.5" fill="#FF8FA3" opacity=".55"></circle><circle cx="80" cy="70" r="4.5" fill="#FF8FA3" opacity=".55"></circle><g class="pet-eyes" style="transform-box:fill-box;transform-origin:center"><path d="M42 62 q7 7.700000000000001 14 0" fill="none" stroke="#34503C" stroke-width="3" stroke-linecap="round"></path><path d="M64 62 q7 7.700000000000001 14 0" fill="none" stroke="#34503C" stroke-width="3" stroke-linecap="round"></path></g><path d="M52 78 q8 8 16 0" fill="none" stroke="#34503C" stroke-width="3" stroke-linecap="round"></path></svg>