<svg xmlns="http://www.w3.org/2000/svg" viewBox="0 0 120 120" role="img" class="pet pet-t1 pet-celebrate" stroke-linejoin="round" stroke-linecap="round"><title>Trứng pet đang nứt nở</title><ellipse cx="60" cy="113" rx="32" ry="6" fill="#000" opacity=".08"></ellipse><path d="M60 14 C 88 14 98 50 98 72 C 98 98 80 108 60 108 C 40 108 22 98 22 72 C 22 50 32 14 60 14 Z" fill="#FFF7E2" stroke="#8A7A45" stroke-width="3"></path><g fill="#A5D6A7"><ellipse cx="43" cy="56" rx="7" ry="9"></ellipse><ellipse cx="76" cy="46" rx="6" ry="8"></ellipse><ellipse cx="66" cy="82" rx="8" ry="10"></ellipse><ellipse cx="40" cy="88" rx="5" ry="6"></ellipse><ellipse cx="82" cy="78" rx="5.5" ry="7"></ellipse></g><path d="M34 40 q10 -10 24 -8" fill="none" stroke="#fff" stroke-width="4" opacity=".6"></path><path d="M40 42 l9 7 -7 7 11 6 -8 8" fill="none" stroke="#8A7A45" stroke-width="2.6"></path><circle cx="56" cy="60" r="4.5" fill="#fff" stroke="#34503C" stroke-width="2"></circle><circle cx="56" cy="61" r="2.2" fill="#34503C"></circle><g fill="#FFC93C" stroke="#34503C" stroke-width="1" class="pet-spark"><path d="M28.0,35.0 L29.3,38.2 L32.8,38.5 L30.1,40.7 L30.9,44.0 L28.0,42.3 L25.1,44.0 L25.9,40.7 L23.2,38.5 L26.7,38.2 Z"></path><path d="M98.0,39.6 L99.2,42.4 L102.2,42.6 L99.9,44.6 L100.6,47.6 L98.0,46.0 L95.4,47.6 L96.1,44.6 L93.8,42.6 L96.8,42.4 Z"></path><path d="M92.0,80.4 L93.0,82.7 L95.4,82.9 L93.5,84.5 L94.1,86.9 L92.0,85.6 L89.9,86.9 L90.5,84.5 L88.6,82.9 L91.0,82.7 Z"></path></g></svg>