<svg xmlns="http://www.w3.org/2000/svg" viewBox="0 0 120 120" role="img" class="pet pet-t2 pet-celebrate" stroke-linejoin="round" stroke-linecap="round"><title>Pet bé con (celebrate)</title><ellipse cx="60" cy="113" rx="32" ry="6" fill="#000" opacity=".08"></ellipse><path d="M30 70 q-12 -10 -10 -22" fill="none" stroke="#34503C" stroke-width="6" stroke-linecap="round"></path><path d="M90 70 q12 -10 10 -22" fill="none" stroke="#34503C" stroke-width="6" stroke-linecap="round"></path><ellipse cx="44" cy="100" rx="9" ry="6" fill="#4CAF50" stroke="#34503C" stroke-width="2.6"></ellipse><ellipse cx="76" cy="100" rx="9" ry="6" fill="#4CAF50" stroke="#34503C" stroke-width="2.6"></ellipse><path d="M46 32 l-5 -14 11 8z M74 32 l5 -14 -11 8z" fill="#FFC93C" stroke="#34503C" stroke-width="2.4"></path><circle cx="60" cy="64" r="36" fill="#66BB6A" stroke="#34503C" stroke-width="3"></circle><ellipse cx="60" cy="74" rx="22" ry="18" fill="#E8F5E9" opacity=".85"></ellipse><circle cx="40" cy="70" r="4.5" fill="#FF8FA3" opacity=".55"></circle><circle cx="80" cy="70" r="4.5" fill="#FF8FA3" opacity=".55"></circle><g class="pet-eyes" style="transform-box:fill-box;transform-origin:center"><ellipse cx="49" cy="62" rx="7" ry="8.26" fill="#fff" stroke="#34503C" stroke-width="2.4"></ellipse><ellipse cx="71" cy="62" rx="7" ry="8.26" fill="#fff" stroke="#34503C" stroke-width="2.4"></ellipse><circle cx="49" cy="62" r="3.9200000000000004" fill="#34503C"></circle><circle cx="71" cy="62" r="3.9200000000000004" fill="#34503C"></circle><circle cx="50.96" cy="59.2" r="1.54" fill="#fff"></circle><circle cx="72.96" cy="59.2" r="1.54" fill="#fff"></circle></g><path d="M51 78 q9 12 18 0 z" fill="#7A3B2E" stroke="#34503C" stroke-width="2"></path><path d="M56 84 q4 4 8 0" fill="#FF8FA3"></path><g fill="#FFC93C" stroke="#34503C" stroke-width="1" class="pet-spark"><path d="M22.0,33.0 L23.3,36.2 L26.8,36.5 L24.1,38.7 L24.9,42.0 L22.0,40.3 L19.1,42.0 L19.9,38.7 L17.2,36.5 L20.7,36.2 Z"></path><path d="M98.0,35.6 L99.2,38.4 L102.2,38.6 L99.9,40.6 L100.6,43.6 L98.0,42.0 L95.4,43.6 L96.1,40.6 L93.8,38.6 L96.8,38.4 Z"></path><path d="M60.0,12.0 L61.1,14.5 L63.8,14.8 L61.7,16.6 L62.4,19.2 L60.0,17.8 L57.6,19.2 L58.3,16.6 L56.2,14.8 L58.9,14.5 Z"></path></g></svg>