<svg xmlns="http://www.w3.org/2000/svg" viewBox="0 0 120 120" role="img" class="pet pet-t4 pet-try" stroke-linejoin="round" stroke-linecap="round"><title>Pet trưởng thành (try)</title><ellipse cx="60" cy="113" rx="32" ry="6" fill="#000" opacity=".08"></ellipse><path d="M38 72 q-28 -16 -32 6 q-2 16 13 15 q10 -9 19 -9z" fill="#4CAF50" stroke="#34503C" stroke-width="2.6"></path><path d="M82 72 q28 -16 32 6 q2 16 -13 15 q-10 -9 -19 -9z" fill="#4CAF50" stroke="#34503C" stroke-width="2.6"></path><path d="M86 92 q22 10 22 -10" fill="none" stroke="#34503C" stroke-width="5" stroke-linecap="round"></path><path d="M104 78 l8 -3 -1 9z" fill="#4CAF50" stroke="#34503C" stroke-width="2"></path><ellipse cx="60" cy="82" rx="25" ry="27" fill="#66BB6A" stroke="#34503C" stroke-width="3"></ellipse><ellipse cx="60" cy="88" rx="15" ry="16" fill="#E8F5E9" opacity=".85"></ellipse><ellipse cx="47" cy="106" rx="9" ry="6" fill="#4CAF50" stroke="#34503C" stroke-width="2.6"></ellipse><ellipse cx="73" cy="106" rx="9" ry="6" fill="#4CAF50" stroke="#34503C" stroke-width="2.6"></ellipse><g><rect x="49" y="88" width="22" height="16" rx="2" fill="#42A5F5" stroke="#34503C" stroke-width="2.4"></rect><line x1="60" y1="88" x2="60" y2="104" stroke="#34503C" stroke-width="1.6"></line><line x1="53" y1="94" x2="57.5" y2="94" stroke="#fff" stroke-width="1.4"></line><line x1="62.5" y1="94" x2="67" y2="94" stroke="#fff" stroke-width="1.4"></line><line x1="53" y1="99" x2="57.5" y2="99" stroke="#fff" stroke-width="1.4"></line><line x1="62.5" y1="99" x2="67" y2="99" stroke="#fff" stroke-width="1.4"></line></g><path d="M49 26 l-5 -14 11 8z M71 26 l5 -14 -11 8z" fill="#FFC93C" stroke="#34503C" stroke-width="2.4"></path><circle cx="60" cy="46" r="23" fill="#66BB6A" stroke="#34503C" stroke-width="3"></circle><circle cx="43" cy="50" r="4.5" fill="#FF8FA3" opacity=".55"></circle><circle cx="77" cy="50" r="4.5" fill="#FF8FA3" opacity=".55"></circle><circle cx="52" cy="46" r="8.5" fill="#fff"></circle><circle cx="68" cy="46" r="8.5" fill="#fff"></circle><g class="pet-eyes" style="transform-box:fill-box;transform-origin:center"><ellipse cx="52" cy="46" rx="4.6" ry="5.427999999999999" fill="#fff" stroke="#34503C" stroke-width="2.4"></ellipse><ellipse cx="68" cy="46" rx="4.6" ry="5.427999999999999" fill="#fff" stroke="#34503C" stroke-width="2.4"></ellipse><circle cx="52" cy="48.2" r="2.576" fill="#34503C"></circle><circle cx="68" cy="48.2" r="2.576" fill="#34503C"></circle><circle cx="53.288" cy="46.36" r="1.012" fill="#fff"></circle><circle cx="69.288" cy="46.36" r="1.012" fill="#fff"></circle><path d="M46.4 40.94 q5.6 -2 11.2 0" fill="none" stroke="#34503C" stroke-width="2" stroke-linecap="round"></path><path d="M62.4 40.94 q5.6 -2 11.2 0" fill="none" stroke="#34503C" stroke-width="2" stroke-linecap="round"></path></g><g fill="none" stroke="#34503C" stroke-width="2.6"><circle cx="52" cy="46" r="9"></circle><circle cx="68" cy="46" r="9"></circle><path d="M61 46 h-2"></path><path d="M43 44 l-6 -3"></path></g><ellipse cx="60" cy="62" rx="5" ry="4" fill="#7A3B2E" stroke="#34503C" stroke-width="2"></ellipse><path d="M96 44 q-4 5 0 8.5 q4 -3.5 0 -8.5z" fill="#7EC8E3" stroke="#34503C" stroke-width="1.4"></path></svg>