<svg xmlns="http://www.w3.org/2000/svg" viewBox="0 0 240 300" font-family="Arial, sans-serif">
  <title>Cấu trúc xoắn kép DNA — cặp base A–T, G–C</title>
  <line x1="135.8" y1="52" x2="104.2" y2="52" stroke="#C62828" stroke-width="4" opacity="0.85"></line><line x1="153.8" y1="94" x2="86.2" y2="94" stroke="#1565C0" stroke-width="4" opacity="0.85"></line><line x1="128.1" y1="136" x2="111.9" y2="136" stroke="#C62828" stroke-width="4" opacity="0.85"></line><line x1="92.0" y1="178" x2="148.0" y2="178" stroke="#1565C0" stroke-width="4" opacity="0.85"></line><line x1="92.0" y1="220" x2="148.0" y2="220" stroke="#C62828" stroke-width="4" opacity="0.85"></line><line x1="128.1" y1="262" x2="111.9" y2="262" stroke="#1565C0" stroke-width="4" opacity="0.85"></line>
  <polyline points="120.0,30 135.8,34 148.0,38 153.8,42 151.8,46 142.5,50 128.1,54 111.9,58 97.5,62 88.2,66 86.2,70 92.0,74 104.2,78 120.0,82 135.8,86 148.0,90 153.8,94 151.8,98 142.5,102 128.1,106 111.9,110 97.5,114 88.2,118 86.2,122 92.0,126 104.2,130 120.0,134 135.8,138 148.0,142 153.8,146 151.8,150 142.5,154 128.1,158 111.9,162 97.5,166 88.2,170 86.2,174 92.0,178 104.2,182 120.0,186 135.8,190 148.0,194 153.8,198 151.8,202 142.5,206 128.1,210 111.9,214 97.5,218 88.2,222 86.2,226 92.0,230 104.2,234 120.0,238 135.8,242 148.0,246 153.8,250 151.8,254 142.5,258 128.1,262 111.9,266 97.5,270 88.2,274" fill="none" stroke="#0D47A1" stroke-width="3.5"></polyline>
  <polyline points="120.0,30 104.2,34 92.0,38 86.2,42 88.2,46 97.5,50 111.9,54 128.1,58 142.5,62 151.8,66 153.8,70 148.0,74 135.8,78 120.0,82 104.2,86 92.0,90 86.2,94 88.2,98 97.5,102 111.9,106 128.1,110 142.5,114 151.8,118 153.8,122 148.0,126 135.8,130 120.0,134 104.2,138 92.0,142 86.2,146 88.2,150 97.5,154 111.9,158 128.1,162 142.5,166 151.8,170 153.8,174 148.0,178 135.8,182 120.0,186 104.2,190 92.0,194 86.2,198 88.2,202 97.5,206 111.9,210 128.1,214 142.5,218 151.8,222 153.8,226 148.0,230 135.8,234 120.0,238 104.2,242 92.0,246 86.2,250 88.2,254 97.5,258 111.9,262 128.1,266 142.5,270 151.8,274" fill="none" stroke="#1565C0" stroke-width="3.5"></polyline>
  <text x="172" y="56" font-size="12" font-weight="700" fill="#C62828">A–T</text>
  <text x="172" y="140" font-size="12" font-weight="700" fill="#1565C0">G–C</text>
  <text x="120" y="296" text-anchor="middle" font-size="11" fill="#546E7A">2 mạch xoắn kép</text>
</svg>