<svg xmlns="http://www.w3.org/2000/svg" viewBox="0 0 340 220" font-family="Arial, sans-serif">
  <title>Sơ đồ hô hấp tế bào</title>
  <rect x="110" y="56" width="120" height="108" rx="20" fill="#E8F5E9" stroke="#2E7D32" stroke-width="2.5"></rect>
  <ellipse cx="170" cy="110" rx="44" ry="26" fill="#FFCDD2" stroke="#C62828" stroke-width="2"></ellipse>
  <path d="M138,100 q12,16 0,28 M158,96 q14,18 0,34 M182,96 q-14,18 0,34 M202,100 q-12,16 0,28" fill="none" stroke="#E57373" stroke-width="1.6"></path>
  <text x="170" y="150" text-anchor="middle" font-size="9" fill="#C62828">ti thể</text>
  <line x1="40" y1="84" x2="108" y2="96" stroke="#2E7D32" stroke-width="2.2"></line><path d="M100.2,97.9 L108,96 L101.4,91.5" fill="none" stroke="#2E7D32" stroke-width="2.2" stroke-linecap="round" stroke-linejoin="round"></path><text x="40" y="76" font-size="11" font-weight="700" fill="#2E7D32">C₆H₁₂O₆</text>
  <line x1="40" y1="140" x2="108" y2="128" stroke="#1565C0" stroke-width="2.2"></line><path d="M101.4,132.5 L108,128 L100.2,126.1" fill="none" stroke="#1565C0" stroke-width="2.2" stroke-linecap="round" stroke-linejoin="round"></path><text x="56" y="156" font-size="11" font-weight="700" fill="#1565C0">6O₂</text>
  <line x1="232" y1="90" x2="300" y2="78" stroke="#546E7A" stroke-width="2.2"></line><path d="M293.4,82.5 L300,78 L292.2,76.1" fill="none" stroke="#546E7A" stroke-width="2.2" stroke-linecap="round" stroke-linejoin="round"></path><text x="304" y="74" font-size="11" font-weight="700" fill="#546E7A">6CO₂</text>
  <line x1="232" y1="118" x2="300" y2="118" stroke="#1565C0" stroke-width="2.2"></line><path d="M292.7,121.3 L300,118 L292.7,114.7" fill="none" stroke="#1565C0" stroke-width="2.2" stroke-linecap="round" stroke-linejoin="round"></path><text x="304" y="120" font-size="11" font-weight="700" fill="#1565C0">6H₂O</text>
  <line x1="232" y1="146" x2="300" y2="158" stroke="#C62828" stroke-width="2.4"></line><path d="M292.2,159.9 L300,158 L293.4,153.5" fill="none" stroke="#C62828" stroke-width="2.4" stroke-linecap="round" stroke-linejoin="round"></path><text x="304" y="162" font-size="12" font-weight="800" fill="#C62828">ATP</text>
</svg>