<svg xmlns="http://www.w3.org/2000/svg" viewBox="0 0 320 200" font-family="Arial, sans-serif">
  <title>Cấu trúc lục lạp</title>
  <ellipse cx="160" cy="100" rx="132" ry="64" fill="#C8E6C9" stroke="#2E7D32" stroke-width="3"></ellipse>
  <ellipse cx="160" cy="100" rx="120" ry="54" fill="#E8F5E9" stroke="#81C784" stroke-width="1.5"></ellipse>
  <g><ellipse cx="80" cy="82" rx="16" ry="4.4" fill="#66BB6A" stroke="#2E7D32" stroke-width="0.8"></ellipse><ellipse cx="80" cy="91" rx="16" ry="4.4" fill="#66BB6A" stroke="#2E7D32" stroke-width="0.8"></ellipse><ellipse cx="80" cy="100" rx="16" ry="4.4" fill="#66BB6A" stroke="#2E7D32" stroke-width="0.8"></ellipse><ellipse cx="80" cy="109" rx="16" ry="4.4" fill="#66BB6A" stroke="#2E7D32" stroke-width="0.8"></ellipse><ellipse cx="80" cy="118" rx="16" ry="4.4" fill="#66BB6A" stroke="#2E7D32" stroke-width="0.8"></ellipse></g><g><ellipse cx="130" cy="82" rx="16" ry="4.4" fill="#66BB6A" stroke="#2E7D32" stroke-width="0.8"></ellipse><ellipse cx="130" cy="91" rx="16" ry="4.4" fill="#66BB6A" stroke="#2E7D32" stroke-width="0.8"></ellipse><ellipse cx="130" cy="100" rx="16" ry="4.4" fill="#66BB6A" stroke="#2E7D32" stroke-width="0.8"></ellipse><ellipse cx="130" cy="109" rx="16" ry="4.4" fill="#66BB6A" stroke="#2E7D32" stroke-width="0.8"></ellipse><ellipse cx="130" cy="118" rx="16" ry="4.4" fill="#66BB6A" stroke="#2E7D32" stroke-width="0.8"></ellipse></g><g><ellipse cx="180" cy="82" rx="16" ry="4.4" fill="#66BB6A" stroke="#2E7D32" stroke-width="0.8"></ellipse><ellipse cx="180" cy="91" rx="16" ry="4.4" fill="#66BB6A" stroke="#2E7D32" stroke-width="0.8"></ellipse><ellipse cx="180" cy="100" rx="16" ry="4.4" fill="#66BB6A" stroke="#2E7D32" stroke-width="0.8"></ellipse><ellipse cx="180" cy="109" rx="16" ry="4.4" fill="#66BB6A" stroke="#2E7D32" stroke-width="0.8"></ellipse><ellipse cx="180" cy="118" rx="16" ry="4.4" fill="#66BB6A" stroke="#2E7D32" stroke-width="0.8"></ellipse></g><g><ellipse cx="230" cy="82" rx="16" ry="4.4" fill="#66BB6A" stroke="#2E7D32" stroke-width="0.8"></ellipse><ellipse cx="230" cy="91" rx="16" ry="4.4" fill="#66BB6A" stroke="#2E7D32" stroke-width="0.8"></ellipse><ellipse cx="230" cy="100" rx="16" ry="4.4" fill="#66BB6A" stroke="#2E7D32" stroke-width="0.8"></ellipse><ellipse cx="230" cy="109" rx="16" ry="4.4" fill="#66BB6A" stroke="#2E7D32" stroke-width="0.8"></ellipse><ellipse cx="230" cy="118" rx="16" ry="4.4" fill="#66BB6A" stroke="#2E7D32" stroke-width="0.8"></ellipse></g>
  <text x="160" y="188" text-anchor="middle" font-size="10" fill="#2E7D32">thylakoid xếp chồng (grana)</text>
  <text x="48" y="56" font-size="10" fill="#2E7D32">màng kép</text>
  <text x="270" y="120" text-anchor="middle" font-size="9" fill="#2E7D32">stroma</text>
</svg>