<svg xmlns="http://www.w3.org/2000/svg" viewBox="0 0 340 230" font-family="Arial, sans-serif">
  <title>Sơ đồ quang hợp ở lá cây</title>
  <path d="M170,70 Q230,70 232,150 Q170,168 110,150 Q108,72 170,70 Z" fill="#A5D6A7" stroke="#2E7D32" stroke-width="2.5"></path>
  <line x1="170" y1="76" x2="170" y2="150" stroke="#2E7D32" stroke-width="1.6"></line>
  <circle cx="60" cy="40" r="16" fill="#FFD54F" stroke="#F9A825" stroke-width="2"></circle>
  <line x1="78" y1="40" x2="84" y2="40" stroke="#F9A825" stroke-width="2"></line><line x1="72.72792206135786" y1="52.72792206135786" x2="76.97056274847714" y2="56.970562748477136" stroke="#F9A825" stroke-width="2"></line><line x1="60" y1="58" x2="60" y2="64" stroke="#F9A825" stroke-width="2"></line><line x1="47.27207793864214" y1="52.72792206135786" x2="43.029437251522864" y2="56.97056274847714" stroke="#F9A825" stroke-width="2"></line><line x1="42" y1="40" x2="36" y2="40" stroke="#F9A825" stroke-width="2"></line><line x1="47.27207793864214" y1="27.272077938642145" x2="43.02943725152286" y2="23.02943725152286" stroke="#F9A825" stroke-width="2"></line><line x1="60" y1="22" x2="59.99999999999999" y2="16" stroke="#F9A825" stroke-width="2"></line><line x1="72.72792206135784" y1="27.27207793864214" x2="76.97056274847714" y2="23.029437251522857" stroke="#F9A825" stroke-width="2"></line>
  <line x1="80" y1="52" x2="118" y2="98" stroke="#E65100" stroke-width="2"></line><path d="M110.8,94.4 L118,98 L115.9,90.3" fill="none" stroke="#E65100" stroke-width="2" stroke-linecap="round" stroke-linejoin="round"></path>
  <line x1="40" y1="150" x2="108" y2="134" stroke="#1565C0" stroke-width="2"></line><path d="M101.6,138.8 L108,134 L100.1,132.5" fill="none" stroke="#1565C0" stroke-width="2" stroke-linecap="round" stroke-linejoin="round"></path>
  <line x1="60" y1="196" x2="120" y2="156" stroke="#00838F" stroke-width="2"></line><path d="M115.7,162.8 L120,156 L112.1,157.3" fill="none" stroke="#00838F" stroke-width="2" stroke-linecap="round" stroke-linejoin="round"></path>
  <line x1="232" y1="110" x2="300" y2="84" stroke="#2E7D32" stroke-width="2.2"></line><path d="M294.3,89.7 L300,84 L292.0,83.6" fill="none" stroke="#2E7D32" stroke-width="2.2" stroke-linecap="round" stroke-linejoin="round"></path>
  <line x1="232" y1="140" x2="300" y2="168" stroke="#C62828" stroke-width="2.2"></line><path d="M292.0,168.2 L300,168 L294.5,162.2" fill="none" stroke="#C62828" stroke-width="2.2" stroke-linecap="round" stroke-linejoin="round"></path>
  <text x="44" y="120" font-size="12" font-weight="700" fill="#1565C0">6H₂O</text>
  <text x="70" y="210" font-size="12" font-weight="700" fill="#00838F">6CO₂</text>
  <text x="86" y="44" font-size="11" font-weight="700" fill="#E65100">ánh sáng</text>
  <text x="304" y="84" font-size="12" font-weight="700" fill="#2E7D32">C₆H₁₂O₆</text>
  <text x="304" y="172" font-size="12" font-weight="700" fill="#C62828">6O₂</text>
</svg>