<svg xmlns="http://www.w3.org/2000/svg" viewBox="0 0 300 280" font-family="Arial, sans-serif">
  <title>Hệ trục tọa độ Oxy</title>
  <line x1="54" y1="146" x2="54" y2="154" stroke="#0D47A1" stroke-width="1.4"></line><line x1="146" y1="240" x2="154" y2="240" stroke="#0D47A1" stroke-width="1.4"></line><line x1="86" y1="146" x2="86" y2="154" stroke="#0D47A1" stroke-width="1.4"></line><line x1="146" y1="210" x2="154" y2="210" stroke="#0D47A1" stroke-width="1.4"></line><line x1="118" y1="146" x2="118" y2="154" stroke="#0D47A1" stroke-width="1.4"></line><line x1="146" y1="180" x2="154" y2="180" stroke="#0D47A1" stroke-width="1.4"></line><line x1="182" y1="146" x2="182" y2="154" stroke="#0D47A1" stroke-width="1.4"></line><line x1="146" y1="120" x2="154" y2="120" stroke="#0D47A1" stroke-width="1.4"></line><line x1="214" y1="146" x2="214" y2="154" stroke="#0D47A1" stroke-width="1.4"></line><line x1="146" y1="90" x2="154" y2="90" stroke="#0D47A1" stroke-width="1.4"></line><line x1="246" y1="146" x2="246" y2="154" stroke="#0D47A1" stroke-width="1.4"></line><line x1="146" y1="60" x2="154" y2="60" stroke="#0D47A1" stroke-width="1.4"></line><line x1="150" y1="274" x2="150" y2="26" stroke="#0D47A1" stroke-width="2"></line><path d="M153.3,33.3 L150,26 L146.7,33.3" fill="none" stroke="#0D47A1" stroke-width="2" stroke-linecap="round" stroke-linejoin="round"></path><line x1="20" y1="150" x2="280" y2="150" stroke="#0D47A1" stroke-width="2"></line><path d="M272.7,153.3 L280,150 L272.7,146.7" fill="none" stroke="#0D47A1" stroke-width="2" stroke-linecap="round" stroke-linejoin="round"></path><text x="278" y="166" font-size="13" font-weight="700" fill="#0D47A1">x</text><text x="158" y="30" font-size="13" font-weight="700" fill="#0D47A1">y</text><text x="136" y="166" font-size="11" fill="#546E7A">O</text>
  <text x="184" y="146" font-size="10" fill="#546E7A">1</text>
  <text x="156" y="124" font-size="10" fill="#546E7A">1</text>
</svg>