<svg xmlns="http://www.w3.org/2000/svg" viewBox="0 0 320 240" font-family="Arial, sans-serif">
  <title>Hyperbol chính tắc</title>
  <line x1="40" y1="120" x2="280" y2="120" stroke="none"></line>
  <line x1="44" y1="216" x2="276" y2="24" stroke="#B0BEC5" stroke-width="1.2" stroke-dasharray="5 4"></line>
  <line x1="44" y1="24" x2="276" y2="216" stroke="#B0BEC5" stroke-width="1.2" stroke-dasharray="5 4"></line>
  <line x1="160" y1="220" x2="160" y2="20" stroke="#0D47A1" stroke-width="2"></line><path d="M163.3,27.3 L160,20 L156.7,27.3" fill="none" stroke="#0D47A1" stroke-width="2" stroke-linecap="round" stroke-linejoin="round"></path><line x1="20" y1="120" x2="300" y2="120" stroke="#0D47A1" stroke-width="2"></line><path d="M292.7,123.3 L300,120 L292.7,116.7" fill="none" stroke="#0D47A1" stroke-width="2" stroke-linecap="round" stroke-linejoin="round"></path><text x="298" y="136" font-size="13" font-weight="700" fill="#0D47A1">x</text><text x="168" y="24" font-size="13" font-weight="700" fill="#0D47A1">y</text><text x="146" y="136" font-size="11" fill="#546E7A">O</text>
  <polyline points="298.0,218.5 288.9,209.7 280.6,201.4 273.1,193.7 266.4,186.4 260.3,179.5 254.9,173.1 250.1,166.9 245.8,161.1 242.1,155.6 238.9,150.2 236.3,145.1 234.1,140.1 232.4,135.3 231.1,130.5 230.4,125.8 230.0,121.2 230.1,116.5 230.7,111.9 231.7,107.1 233.2,102.3 235.1,97.4 237.5,92.4 240.5,87.1 243.9,81.7 247.9,76.0 252.4,70.0 257.5,63.7 263.3,57.1 269.7,50.0 276.8,42.5 284.7,34.5 293.3,26.0" fill="none" stroke="#C62828" stroke-width="2.6"></polyline>
  <polyline points="22.0,218.5 31.1,209.7 39.4,201.4 46.9,193.7 53.6,186.4 59.7,179.5 65.1,173.1 69.9,166.9 74.2,161.1 77.9,155.6 81.1,150.2 83.7,145.1 85.9,140.1 87.6,135.3 88.9,130.5 89.6,125.8 90.0,121.2 89.9,116.5 89.3,111.9 88.3,107.1 86.8,102.3 84.9,97.4 82.5,92.4 79.5,87.1 76.1,81.7 72.1,76.0 67.6,70.0 62.5,63.7 56.7,57.1 50.3,50.0 43.2,42.5 35.3,34.5 26.7,26.0" fill="none" stroke="#C62828" stroke-width="2.6"></polyline>
  <circle cx="230" cy="120" r="3" fill="#0D47A1"></circle><circle cx="90" cy="120" r="3" fill="#0D47A1"></circle>
  <text x="226" y="138" font-size="11" font-weight="700" fill="#0D47A1">A₂</text>
  <text x="82" y="138" font-size="11" font-weight="700" fill="#0D47A1">A₁</text>
</svg>