<svg xmlns="http://www.w3.org/2000/svg" viewBox="0 0 300 280" font-family="Arial, sans-serif">
  <title>Đồ thị parabol y = x²</title>
  <line x1="150" y1="262" x2="150" y2="20" stroke="#0D47A1" stroke-width="2"></line><path d="M153.3,27.3 L150,20 L146.7,27.3" fill="none" stroke="#0D47A1" stroke-width="2" stroke-linecap="round" stroke-linejoin="round"></path>
  <line x1="24" y1="250" x2="288" y2="250" stroke="#0D47A1" stroke-width="2"></line><path d="M280.7,253.3 L288,250 L280.7,246.7" fill="none" stroke="#0D47A1" stroke-width="2" stroke-linecap="round" stroke-linejoin="round"></path>
  <text x="156" y="20" font-size="14" font-weight="700" fill="#0D47A1">y</text>
  <text x="284" y="268" font-size="14" font-weight="700" fill="#0D47A1">x</text>
  <text x="136" y="268" font-size="12" fill="#546E7A">O</text>
  <polyline points="24.0,29.5 29.8,49.2 35.5,68.0 41.3,85.8 47.0,102.8 52.8,118.8 58.6,133.9 64.3,148.0 70.1,161.3 75.8,173.6 81.6,185.0 87.4,195.5 93.1,205.1 98.9,213.7 104.6,221.4 110.4,228.2 116.2,234.1 121.9,239.0 127.7,243.1 133.4,246.2 139.2,248.4 145.0,249.6 150.7,250.0 156.5,249.4 162.2,247.9 168.0,245.5 173.8,242.2 179.5,237.9 185.3,232.7 191.0,226.6 196.8,219.6 202.6,211.6 208.3,202.8 214.1,193.0 219.8,182.3 225.6,170.6 231.4,158.1 237.1,144.6 242.9,130.2 248.6,114.9 254.4,98.6 260.2,81.5 265.9,63.4 271.7,44.4" fill="none" stroke="#C62828" stroke-width="2.6"></polyline>
  <circle cx="78" cy="178" r="3" fill="#0D47A1"></circle><text x="52" y="174" font-size="11" fill="#0D47A1">(-1;1)</text>
  <circle cx="222" cy="178" r="3" fill="#0D47A1"></circle><text x="226" y="174" font-size="11" fill="#0D47A1">(1;1)</text>
  <text x="120" y="244" font-size="11" fill="#546E7A">y = x²</text>
</svg>