<svg xmlns="http://www.w3.org/2000/svg" viewBox="0 0 320 240" font-family="Arial, sans-serif">
  <title>Parabol — tiêu điểm và đường chuẩn</title>
  <line x1="40" y1="40" x2="40" y2="200" stroke="#2E7D32" stroke-width="2" stroke-dasharray="6 4"></line>
  <text x="20" y="120" font-size="11" font-weight="700" fill="#2E7D32">đường chuẩn</text>
  <line x1="20" y1="120" x2="300" y2="120" stroke="#0D47A1" stroke-width="2"></line><path d="M292.7,123.3 L300,120 L292.7,116.7" fill="none" stroke="#0D47A1" stroke-width="2" stroke-linecap="round" stroke-linejoin="round"></path>
  <text x="150" y="112" font-size="10" fill="#546E7A">trục đối xứng</text>
  <polyline points="113.2,192.0 108.5,188.0 104.1,184.0 100.0,180.0 96.1,176.0 92.5,172.0 89.2,168.0 86.1,164.0 83.3,160.0 80.8,156.0 78.5,152.0 76.5,148.0 74.8,144.0 73.3,140.0 72.1,136.0 71.2,132.0 70.5,128.0 70.1,124.0 70.0,120.0 70.1,116.0 70.5,112.0 71.2,108.0 72.1,104.0 73.3,100.0 74.8,96.0 76.5,92.0 78.5,88.0 80.8,84.0 83.3,80.0 86.1,76.0 89.2,72.0 92.5,68.0 96.1,64.0 100.0,60.0 104.1,56.0 108.5,52.0 113.2,48.0" fill="none" stroke="#C62828" stroke-width="2.6"></polyline>
  <circle cx="100" cy="120" r="4" fill="#E65100"></circle>
  <text x="104" y="112" font-size="12" font-weight="700" fill="#E65100">F</text>
  <circle cx="70" cy="120" r="3" fill="#0D47A1"></circle><text x="60" y="138" font-size="11" fill="#0D47A1">O</text>
</svg>