<svg xmlns="http://www.w3.org/2000/svg" viewBox="0 0 340 230" font-family="Arial, sans-serif">
  <title>Đồ thị y = sin x và y = cos x</title>
  <line x1="40" y1="120" x2="326" y2="120" stroke="#0D47A1" stroke-width="2"></line><path d="M318.7,123.3 L326,120 L318.7,116.7" fill="none" stroke="#0D47A1" stroke-width="2" stroke-linecap="round" stroke-linejoin="round"></path><line x1="40" y1="200" x2="40" y2="30" stroke="#0D47A1" stroke-width="2"></line><path d="M43.3,37.3 L40,30 L36.7,37.3" fill="none" stroke="#0D47A1" stroke-width="2" stroke-linecap="round" stroke-linejoin="round"></path>
  <text x="320" y="138" font-size="12" font-weight="700" fill="#0D47A1">x</text><text x="46" y="38" font-size="12" font-weight="700" fill="#0D47A1">y</text>
  <polyline points="40,120.0 41,118.9 42,117.8 43,116.7 44,115.6 45,114.5 46,113.4 47,112.3 48,111.2 49,110.1 50,109.0 51,107.9 52,106.8 53,105.8 54,104.7 55,103.7 56,102.7 57,101.6 58,100.6 59,99.6 60,98.6 61,97.6 62,96.7 63,95.7 64,94.8 65,93.9 66,93.0 67,92.1 68,91.2 69,90.3 70,89.5 71,88.7 72,87.9 73,87.1 74,86.3 75,85.6 76,84.8 77,84.1 78,83.4 79,82.8 80,82.1 81,81.5 82,80.9 83,80.3 84,79.8 85,79.3 86,78.8 87,78.3 88,77.8 89,77.4 90,77.0 91,76.6 92,76.3 93,75.9 94,75.6 95,75.3 96,75.1 97,74.9 98,74.7 99,74.5 100,74.3 101,74.2 102,74.1 103,74.1 104,74.0 105,74.0 106,74.0 107,74.1 108,74.1 109,74.2 110,74.3 111,74.5 112,74.7 113,74.9 114,75.1 115,75.3 116,75.6 117,75.9 118,76.3 119,76.6 120,77.0 121,77.4 122,77.8 123,78.3 124,78.8 125,79.3 126,79.8 127,80.3 128,80.9 129,81.5 130,82.1 131,82.8 132,83.4 133,84.1 134,84.8 135,85.6 136,86.3 137,87.1 138,87.9 139,88.7 140,89.5 141,90.3 142,91.2 143,92.1 144,93.0 145,93.9 146,94.8 147,95.7 148,96.7 149,97.6 150,98.6 151,99.6 152,100.6 153,101.6 154,102.7 155,103.7 156,104.7 157,105.8 158,106.8 159,107.9 160,109.0 161,110.1 162,111.2 163,112.3 164,113.4 165,114.5 166,115.6 167,116.7 168,117.8 169,118.9 170,120.0 171,121.1 172,122.2 173,123.3 174,124.4 175,125.5 176,126.6 177,127.7 178,128.8 179,129.9 180,131.0 181,132.1 182,133.2 183,134.2 184,135.3 185,136.3 186,137.3 187,138.4 188,139.4 189,140.4 190,141.4 191,142.4 192,143.3 193,144.3 194,145.2 195,146.1 196,147.0 197,147.9 198,148.8 199,149.7 200,150.5 201,151.3 202,152.1 203,152.9 204,153.7 205,154.4 206,155.2 207,155.9 208,156.6 209,157.2 210,157.9 211,158.5 212,159.1 213,159.7 214,160.2 215,160.7 216,161.2 217,161.7 218,162.2 219,162.6 220,163.0 221,163.4 222,163.7 223,164.1 224,164.4 225,164.7 226,164.9 227,165.1 228,165.3 229,165.5 230,165.7 231,165.8 232,165.9 233,165.9 234,166.0 235,166.0 236,166.0 237,165.9 238,165.9 239,165.8 240,165.7 241,165.5 242,165.3 243,165.1 244,164.9 245,164.7 246,164.4 247,164.1 248,163.7 249,163.4 250,163.0 251,162.6 252,162.2 253,161.7 254,161.2 255,160.7 256,160.2 257,159.7 258,159.1 259,158.5 260,157.9 261,157.2 262,156.6 263,155.9 264,155.2 265,154.4 266,153.7 267,152.9 268,152.1 269,151.3 270,150.5 271,149.7 272,148.8 273,147.9 274,147.0 275,146.1 276,145.2 277,144.3 278,143.3 279,142.4 280,141.4 281,140.4 282,139.4 283,138.4 284,137.3 285,136.3 286,135.3 287,134.2 288,133.2 289,132.1 290,131.0 291,129.9 292,128.8 293,127.7 294,126.6 295,125.5 296,124.4 297,123.3 298,122.2 299,121.1 300,120.0" fill="none" stroke="#1565C0" stroke-width="2.4"></polyline>
  <polyline points="40,74.0 41,74.0 42,74.1 43,74.1 44,74.2 45,74.3 46,74.5 47,74.7 48,74.9 49,75.1 50,75.3 51,75.6 52,75.9 53,76.3 54,76.6 55,77.0 56,77.4 57,77.8 58,78.3 59,78.8 60,79.3 61,79.8 62,80.3 63,80.9 64,81.5 65,82.1 66,82.8 67,83.4 68,84.1 69,84.8 70,85.6 71,86.3 72,87.1 73,87.9 74,88.7 75,89.5 76,90.3 77,91.2 78,92.1 79,93.0 80,93.9 81,94.8 82,95.7 83,96.7 84,97.6 85,98.6 86,99.6 87,100.6 88,101.6 89,102.7 90,103.7 91,104.7 92,105.8 93,106.8 94,107.9 95,109.0 96,110.1 97,111.2 98,112.3 99,113.4 100,114.5 101,115.6 102,116.7 103,117.8 104,118.9 105,120.0 106,121.1 107,122.2 108,123.3 109,124.4 110,125.5 111,126.6 112,127.7 113,128.8 114,129.9 115,131.0 116,132.1 117,133.2 118,134.2 119,135.3 120,136.3 121,137.3 122,138.4 123,139.4 124,140.4 125,141.4 126,142.4 127,143.3 128,144.3 129,145.2 130,146.1 131,147.0 132,147.9 133,148.8 134,149.7 135,150.5 136,151.3 137,152.1 138,152.9 139,153.7 140,154.4 141,155.2 142,155.9 143,156.6 144,157.2 145,157.9 146,158.5 147,159.1 148,159.7 149,160.2 150,160.7 151,161.2 152,161.7 153,162.2 154,162.6 155,163.0 156,163.4 157,163.7 158,164.1 159,164.4 160,164.7 161,164.9 162,165.1 163,165.3 164,165.5 165,165.7 166,165.8 167,165.9 168,165.9 169,166.0 170,166.0 171,166.0 172,165.9 173,165.9 174,165.8 175,165.7 176,165.5 177,165.3 178,165.1 179,164.9 180,164.7 181,164.4 182,164.1 183,163.7 184,163.4 185,163.0 186,162.6 187,162.2 188,161.7 189,161.2 190,160.7 191,160.2 192,159.7 193,159.1 194,158.5 195,157.9 196,157.2 197,156.6 198,155.9 199,155.2 200,154.4 201,153.7 202,152.9 203,152.1 204,151.3 205,150.5 206,149.7 207,148.8 208,147.9 209,147.0 210,146.1 211,145.2 212,144.3 213,143.3 214,142.4 215,141.4 216,140.4 217,139.4 218,138.4 219,137.3 220,136.3 221,135.3 222,134.2 223,133.2 224,132.1 225,131.0 226,129.9 227,128.8 228,127.7 229,126.6 230,125.5 231,124.4 232,123.3 233,122.2 234,121.1 235,120.0 236,118.9 237,117.8 238,116.7 239,115.6 240,114.5 241,113.4 242,112.3 243,111.2 244,110.1 245,109.0 246,107.9 247,106.8 248,105.8 249,104.7 250,103.7 251,102.7 252,101.6 253,100.6 254,99.6 255,98.6 256,97.6 257,96.7 258,95.7 259,94.8 260,93.9 261,93.0 262,92.1 263,91.2 264,90.3 265,89.5 266,88.7 267,87.9 268,87.1 269,86.3 270,85.6 271,84.8 272,84.1 273,83.4 274,82.8 275,82.1 276,81.5 277,80.9 278,80.3 279,79.8 280,79.3 281,78.8 282,78.3 283,77.8 284,77.4 285,77.0 286,76.6 287,76.3 288,75.9 289,75.6 290,75.3 291,75.1 292,74.9 293,74.7 294,74.5 295,74.3 296,74.2 297,74.1 298,74.1 299,74.0 300,74.0" fill="none" stroke="#C62828" stroke-width="2.4"></polyline>
  <line x1="170" y1="118" x2="170" y2="122" stroke="#0D47A1"></line><text x="162" y="138" font-size="10" fill="#546E7A">π</text>
  <text x="300" y="138" font-size="10" fill="#546E7A">2π</text>
  <rect x="250" y="40" width="12" height="4" fill="#1565C0"></rect><text x="266" y="46" font-size="11" fill="#1565C0">sin x</text>
  <rect x="250" y="56" width="12" height="4" fill="#C62828"></rect><text x="266" y="62" font-size="11" fill="#C62828">cos x</text>
</svg>